<?xml version="1.0" encoding="UTF-8"?>
<svg xmlns="http://www.w3.org/2000/svg" version="1.1" viewBox="0 0 841.89 595.28">
  <defs>
    <style>
      .cls-1 {
        fill: #d92a27;
      }
    </style>
  </defs>
  <!-- Generator: Adobe Illustrator 28.7.1, SVG Export Plug-In . SVG Version: 1.2.0 Build 142)  -->
  <g>
    <g id="Layer_1">
      <g>
        <path class="cls-1" d="M151.85,280.24c-19.06-18.02-13.18-49.69,11.07-59.67L668.96,12.33l-10.98,28.78c-8.03,21.03-24.87,37.47-46.09,44.99L184.37,237.57c-19.74,8.08-24.06,20.8-14.67,28.98l109.94,95.76h-40.98l-86.81-82.07ZM192.82,273.9l99.76-25.71v-.06c0-5.15,3.49-9.65,8.49-10.93l266.7-68.29c27.13-6.95,49.34-26.4,59.8-52.38l4.68-11.61L185.37,248.72c-6.49,2.09-8.6,10.21-3.96,15.2l11.4,9.98ZM199.47,278.78l22.58,20.49,116.85-22.06.75-3.77c.75-3.76,3.73-6.67,7.5-7.35l182.59-32.82c18.88-3.39,35.67-14.08,46.74-29.74l18.4-26.03-395.41,101.29ZM228.68,307.35l26.32,21.84,142.18-17.95h0c-.71-4.56,2.47-8.81,7.04-9.42l79.77-10.71c16.84-2.26,32.05-11.22,42.2-24.84l14.85-19.94-312.36,61.02ZM260.95,335.35l29.35,26.96h187.63l-70.59-45.39-146.39,18.43Z"/>
        <path class="cls-1" d="M175.43,380.03h39.93l69.1,104.62h-41.06l-49.8-77.25-46.81,77.25h-40.98l69.62-104.62ZM422.36,380.03v41.65h-77.47v-41.65h-37.09v104.62h37.09v-46.81h77.47v46.81h37.09v-104.62h-37.09ZM628.76,380.03l-35.39,72.37-35.56-72.37h-58.5v104.62h37.09l-1-79.51,2.85.03,37.11,79.47h35.45l37.67-81.06h1.27s-.57,81.06-.57,81.06h37.09v-104.62h-57.51Z"/>
        <path d="M124.42,507.07h-18.61v40h8.18v-15.38h10.43c6.35,0,11.49-5.14,11.49-11.49v-1.64c0-6.35-5.14-11.49-11.49-11.49ZM122.58,525.14h-8.78v-11.56h8.78c3.19,0,5.78,2.59,5.78,5.78s-2.59,5.78-5.78,5.78ZM171.13,513.59h-11.48v33.48h-7.76v-33.48h-11.71v-6.52h30.95v6.52ZM177.52,547.12h-7.2v-7.76h7.2v7.76ZM225.67,547.06l9.1.05-16.07-40.05h-8.15l-15.3,39.97h8.07l3.29-9.27h15.58l3.48,9.3ZM208.88,531.37l5.31-14.99,5.6,14.99h-10.92ZM243.95,524.56c-.61,2.53,2.14,3.13,4.75,3.72,2.61.59,11.36,2.24,13.16,6.71,1.32,3.26-.13,12.61-11.73,13.01-11.6.4-14.44-8.77-14.44-8.77l7.65-1.4c1.24,5.41,10.21,5.76,11.73,2.51,1.87-4.03-6.42-4.46-11.01-5.83-4.59-1.37-7.28-5.36-6.96-8.31s2.45-9.08,12.51-9.08,12.08,7.76,12.08,7.76l-6.86,1.32c-2.03-5.29-10.34-3.83-10.87-1.64ZM282.73,540.63v5.73s-3.73,1.34-6.77,1.33c-2.92-.02-6.02-2.33-6.05-5.26l-.18-18.68h-3.51v-5.8h3.46l-.06-5.7,7.39-4.7s-.01,4.72-.03,10.39h4.96v5.8h-4.98c-.02,6.36-.03,12.38-.03,13.35,0,2.16.11,4.7,2.48,4.7,1.89,0,3.32-1.16,3.32-1.16ZM634.94,540.62v5.73s-3.73,1.34-6.77,1.33c-2.92-.02-6.02-2.33-6.05-5.26l-.18-18.68h-3.51v-5.8h3.46l-.06-5.7,7.39-4.7s-.01,4.72-.03,10.39h4.96v5.8h-4.98c-.02,6.36-.03,12.38-.03,13.35,0,2.16.11,4.7,2.48,4.7,1.89,0,3.32-1.16,3.32-1.16ZM305.84,519.07l-2.22,6.12s-3.38-2.27-5.49-1c-1.07.64-2.23,2.96-3.11,5.1v18.4h-7.68v-30.07h7.68v2.82c1.12-1.46,2.82-3.06,4.91-3.06,3.85,0,5.91,1.69,5.91,1.69ZM691.44,519.17l-2.22,6.12s-3.38-2.27-5.49-1c-1.07.64-2.23,2.96-3.11,5.1v18.4h-7.68v-30.07h7.68v2.82c1.12-1.46,2.82-3.06,4.91-3.06,3.85,0,5.91,1.69,5.91,1.69ZM332.28,542.15v-17.79c0-2.65-2.8-6.98-12.41-6.98s-12.04,7.97-12.04,7.97l6.91,1.29s.58-3.96,5.75-3.54c5.17.42,4.38,4.96,4.38,4.96,0,0-8.79,2.06-11.05,2.9-2.27.84-7.02,3.48-6.65,9.87.37,6.38,12.56,8.92,18.36,3.11l.84,3.25h7.7s-1.79-2.51-1.79-5.05ZM324.63,538.47s-1.41,4.63-6.64,3.76c-4.76-.79-4.27-6.33.96-7.91,3.5-1.06,5.67-1.44,5.67-1.44v5.59ZM518.94,542.19v-17.79c0-2.65-2.8-6.98-12.41-6.98s-12.04,7.97-12.04,7.97l6.91,1.29s.58-3.96,5.75-3.54c5.17.42,4.38,4.96,4.38,4.96,0,0-8.79,2.06-11.05,2.9-2.27.84-7.02,3.48-6.65,9.87.37,6.38,12.56,8.92,18.36,3.11l.84,3.25h7.7s-1.79-2.51-1.79-5.05ZM511.29,538.51s-1.41,4.63-6.64,3.76c-4.76-.79-4.27-6.33.96-7.91,3.5-1.06,5.67-1.44,5.67-1.44v5.59ZM386.85,506.59v40.61h-8.23v-17.76h-15.35v17.76h-8.23v-40.61h8.23v16.04h15.35v-16.04h8.23ZM407.96,517.5c-8.2,0-14.85,6.65-14.85,14.85s6.65,14.85,14.85,14.85,14.85-6.65,14.85-14.85-6.65-14.85-14.85-14.85ZM407.76,541.58c-4.04,0-7.32-4.11-7.32-9.18s3.28-9.18,7.32-9.18,7.32,4.11,7.32,9.18-3.28,9.18-7.32,9.18ZM600.64,517.48c-8.2,0-14.85,6.65-14.85,14.85s6.65,14.85,14.85,14.85,14.85-6.65,14.85-14.85-6.65-14.85-14.85-14.85ZM600.44,541.56c-4.04,0-7.32-4.11-7.32-9.18s3.28-9.18,7.32-9.18,7.32,4.11,7.32,9.18-3.28,9.18-7.32,9.18ZM652.72,517.48c-8.2,0-14.85,6.65-14.85,14.85s6.65,14.85,14.85,14.85,14.85-6.65,14.85-14.85-6.65-14.85-14.85-14.85ZM652.52,541.56c-4.04,0-7.32-4.11-7.32-9.18s3.28-9.18,7.32-9.18,7.32,4.11,7.32,9.18-3.28,9.18-7.32,9.18ZM454.49,526.14v21.06h-7.44v-15.42c0-5.17-1.16-8.55-5.22-8.55-2.43,0-4.64,2.18-6.02,3.92v20.04h-7.33v-29.34h7.33v3.85c3.09-2.82,5.48-4.25,9.42-4.25,4.91,0,9.26,5.25,9.26,8.68ZM481.16,506.9v14.29c-1.84-1.73-4.98-3.78-9.54-3.78-7.91,0-11.08,8.72-11.08,16.79s5.3,13.03,12.58,13.03c3.23,0,5.98-2.23,8.04-4.7v4.66h7.18v-40.29h-7.18ZM474.42,541.53c-5.82.36-6.52-6.77-6.21-10.17.34-3.72,2.3-8.23,6.25-8.23,2.34,0,4.94,2.51,6.69,4.56v8.87c-1.28,2.21-3.47,4.76-6.73,4.96ZM541.77,506.75h12.03l6.86,27.54,7.28-27.54h12.03v40.49h-7.39l-.32-31.1-7.6,31.1h-7.28l-8.13-31.84v31.84h-7.49v-40.49Z"/>
      </g>
    </g>
  </g>
</svg>